<?xml version="1.0" encoding="utf-8"?>
<!-- Generator: Adobe Illustrator 24.3.0, SVG Export Plug-In . SVG Version: 6.00 Build 0)  -->
<svg version="1.1" id="Layer_1" xmlns="http://www.w3.org/2000/svg" xmlns:xlink="http://www.w3.org/1999/xlink" x="0px" y="0px"
	 viewBox="0 0 2000 1400" style="enable-background:new 0 0 2000 1400;" xml:space="preserve">
<style type="text/css">
	.st0{fill:#FACD64;}
	.st1{fill-rule:evenodd;clip-rule:evenodd;fill:#FACD64;}
</style>
<g>
	<g>
		<g>
			<path class="st0" d="M434.74,1172.31c1.07-0.89,1.25-2.01,1.56-3.06c4.79-16.06,9.54-32.14,14.4-48.17
				c1.69-5.56,0.62-4.92,6.82-4.96c2.24-0.02,4.48-0.04,6.72,0.01c2.75,0.06,3.03,0.27,3.76,2.7c2.97,9.94,5.91,19.89,8.89,29.83
				c2.24,7.49,4.52,14.98,6.82,22.45c0.12,0.4,0.55,0.71,1.09,1.37c1.54-3.77,2.33-7.46,3.37-11.06
				c4.02-13.96,7.97-27.93,11.95-41.9c0.18-0.61,0.44-1.2,0.6-1.82c0.3-1.1,1.07-1.54,2.12-1.56c2.24-0.03,4.48-0.03,6.72-0.04
				c2.72,0,5.44-0.02,8.16,0.03c1.67,0.03,2.04,0.51,1.62,2.02c-0.64,2.31-1.32,4.6-2.01,6.9c-7.01,23.4-14.03,46.79-21.04,70.19
				c-0.92,3.06-1.83,6.12-2.74,9.18c-0.42,1.4-1.32,2.03-2.84,2.01c-3.84-0.06-7.68-0.09-11.52,0.02c-1.78,0.05-2.64-0.81-3.11-2.33
				c-1.31-4.27-2.64-8.54-3.93-12.82c-2.92-9.62-5.82-19.25-8.73-28.88c-1.1-3.66-2.19-7.31-3.3-11.02
				c-1.18,0.62-1.38,1.57-1.66,2.49c-2.88,9.47-5.76,18.94-8.63,28.41c-2.17,7.18-4.29,14.38-6.49,21.55
				c-0.77,2.5-0.83,2.53-3.3,2.56c-3.68,0.05-7.36,0.05-11.04-0.01c-2.36-0.04-2.52-0.16-3.3-2.63c-1.45-4.57-2.83-9.15-4.21-13.74
				c-6.7-22.32-13.38-44.65-20.07-66.98c-0.41-1.38-0.83-2.75-1.19-4.14c-0.57-2.18-0.24-2.74,1.81-2.77
				c4.64-0.05,9.28-0.06,13.92,0c2.01,0.02,2.41,0.39,3,2.42c3.55,12.27,7.09,24.54,10.6,36.81c1.41,4.91,2.74,9.84,4.15,14.75
				C433.95,1170.86,434.38,1171.54,434.74,1172.31z"/>
		</g>
		<g>
			<path class="st0" d="M1176.55,1190.66c-8.52,10.15-18.85,16.16-31.48,17.47c-12.55,1.3-24.12-1.9-34.28-9.54
				c-10.33-7.77-16.54-18.21-18.31-30.92c-1.59-11.43,0.77-22.21,7.24-32c7.98-12.06,19.21-19.17,33.35-21.14
				c13.94-1.95,26.69,1.32,37.33,11.08c1.18,1.08,2.47,2.04,3.65,3.11c2.2,2.01,2.27,2.67,0.22,4.62c-3.13,2.97-6.35,5.84-9.53,8.76
				c-0.7,0.64-1.37,0.66-2.08,0.03c-2.15-1.9-4.28-3.84-6.48-5.69c-4.76-4-10.51-5.65-16.48-5.53
				c-10.61,0.21-19.02,4.91-24.78,13.98c-9.61,15.15-4.58,39.33,17.43,45.42c8.87,2.46,17.47,1.12,24.8-5.09
				c1.83-1.55,3.63-3.13,5.45-4.69c1.28-1.1,1.78-1.18,2.88-0.17C1169.12,1183.7,1172.72,1187.09,1176.55,1190.66z"/>
		</g>
		<g>
			<path class="st0" d="M1546.57,1161.07c0-12.95,0-25.89,0-38.84c0-1.12-0.03-2.24,0.02-3.36c0.1-2.35,0.43-2.66,2.88-2.75
				c0.96-0.04,45.74,0,47.02,0.05c1.11,0.04,1.84,0.62,1.84,1.77c0.03,4.31,0.02,8.63-0.02,12.94c-0.01,0.88-0.55,1.5-1.48,1.55
				c-1.27,0.08-28.94,0.12-30.22,0.16c-1.1,0.04-1.85,0.59-1.85,1.74c-0.03,5.43-0.03,10.87,0,16.3c0.01,1.11,0.66,1.77,1.79,1.83
				c1.12,0.06,16.15,0.05,22.55,0.06c1.28,0,2.56,0.02,3.83,0.11c0.89,0.06,1.53,0.62,1.53,1.52c0.04,4.47,0.03,8.94-0.02,13.41
				c-0.01,0.94-0.8,1.32-1.66,1.36c-1.12,0.06-2.24,0.06-3.36,0.06c-6.4,0.01-21.43-0.02-22.55,0.04c-1.59,0.08-2.01,0.49-2.14,1.95
				c-0.03,0.32-0.03,0.64-0.03,0.96c0,4.8-0.04,9.59,0.01,14.39c0.03,3.09,0.46,3.46,3.69,3.57c0.96,0.03,1.92,0.01,2.88,0.01
				c7.84,0,15.67-0.01,23.51,0.01c1.27,0,2.55,0.05,3.82,0.18c0.67,0.07,1.1,0.58,1.25,1.26c0.07,0.31,0.12,0.63,0.13,0.95
				c0.01,4,0.04,7.99-0.02,11.99c-0.02,1.55-0.51,2-1.99,2.1c-0.96,0.06-1.92,0.04-2.88,0.04c-14.55,0-29.11-0.01-43.66,0.01
				c-5.07,0-4.87,0.17-4.87-5.07C1546.58,1187.92,1546.57,1174.49,1546.57,1161.07z"/>
		</g>
		<g>
			<path class="st0" d="M870.35,1161.08c0-12.95,0-25.9,0-38.85c0-1.12-0.03-2.24,0.02-3.36c0.09-2.42,0.34-2.65,2.86-2.75
				c0.96-0.04,1.92-0.01,2.88-0.01c13.44,0,26.87,0,40.31,0c1.28,0,2.56,0,3.84,0.06c1.1,0.05,1.84,0.62,1.85,1.75
				c0.03,4.31,0.02,8.63-0.02,12.94c-0.01,0.89-0.56,1.5-1.47,1.57c-1.27,0.09-2.55,0.1-3.83,0.1c-7.68,0.01-15.36,0-23.03,0.01
				c-1.28,0-2.56,0.05-3.83,0.13c-0.71,0.04-1.14,0.5-1.28,1.19c-0.07,0.31-0.13,0.63-0.13,0.94c-0.01,5.12-0.04,10.23,0.01,15.35
				c0.02,1.77,0.54,2.29,2.34,2.3c7.04,0.06,14.08,0.04,21.11,0.05c1.44,0,2.88-0.02,4.32,0.06c1.46,0.08,2.01,0.59,2.03,2.09
				c0.05,4.16,0.03,8.31,0,12.47c-0.01,1.14-0.65,1.76-1.78,1.8c-1.28,0.05-2.56,0.05-3.84,0.05c-7.2,0.01-14.4-0.02-21.59,0.03
				c-2.16,0.01-2.57,0.41-2.59,2.49c-0.05,5.28-0.05,10.55,0,15.83c0.02,2.02,0.52,2.52,2.62,2.53c8.64,0.05,17.28,0.03,25.91,0.04
				c1.44,0,2.88,0.01,4.32,0.07c1.1,0.05,1.82,0.66,1.83,1.78c0.04,4.32,0.04,8.63,0.01,12.95c-0.01,1.17-0.82,1.64-1.9,1.68
				c-0.96,0.03-1.92,0.04-2.88,0.04c-14.4,0-28.79,0-43.19,0c-5.17,0-4.87,0.17-4.87-5.05
				C870.35,1187.94,870.35,1174.51,870.35,1161.08z"/>
		</g>
		<g>
			<path class="st0" d="M1466.76,1161.14c0-13.59-0.01-27.18,0.01-40.77c0.01-4.2,0.05-4.25,4.26-4.25
				c14.4-0.02,28.8-0.01,43.19-0.01c0.8,0,1.6,0.01,2.4,0.05c1.08,0.05,1.88,0.55,1.89,1.71c0.04,4.32,0.04,8.63,0.01,12.95
				c-0.01,1.17-0.81,1.65-1.9,1.68c-1.28,0.04-2.56,0.04-3.84,0.04c-7.52,0-15.04,0-22.56,0c-1.12,0-2.24,0.01-3.36,0.04
				c-1.09,0.03-1.89,0.52-1.9,1.69c-0.03,5.44-0.03,10.87-0.01,16.31c0.01,1.09,0.62,1.8,1.75,1.86c1.12,0.07,2.24,0.07,3.36,0.07
				c6.4,0.01,12.8,0,19.2,0.01c1.28,0,2.56,0.01,3.83,0.1c0.88,0.06,1.54,0.58,1.55,1.5c0.04,4.47,0.04,8.94-0.01,13.42
				c-0.01,0.95-0.76,1.35-1.63,1.4c-1.12,0.06-2.24,0.06-3.36,0.06c-6.24,0-12.48,0-18.72,0c-0.96,0-1.92-0.02-2.88,0.01
				c-2.9,0.08-3.12,0.22-3.14,2.91c-0.04,5.28-0.02,10.55,0.03,15.83c0.01,1.48,0.59,2.02,2.02,2.11c1.28,0.08,2.56,0.05,3.84,0.05
				c7.68,0,15.36,0,23.04,0c1.12,0,2.24-0.03,3.36,0.04c1.87,0.1,2.4,0.51,2.43,2.21c0.06,4.16,0.03,8.31-0.01,12.47
				c-0.01,1.14-0.71,1.72-1.84,1.75c-0.96,0.03-1.92,0.04-2.88,0.04c-14.4,0-28.8,0-43.19,0c-1.12,0-2.24-0.01-3.35-0.09
				c-0.91-0.07-1.45-0.63-1.5-1.54c-0.07-1.28-0.09-2.55-0.09-3.83C1466.76,1187.68,1466.76,1174.41,1466.76,1161.14z"/>
		</g>
		<g>
			<path class="st0" d="M1316.86,1161.02c0-12.94,0-25.88,0-38.83c0-1.28-0.03-2.56,0.04-3.83c0.09-1.79,0.46-2.11,2.39-2.22
				c0.64-0.04,1.28-0.03,1.92-0.03c13.43,0,26.86-0.01,40.29,0.01c4.25,0.01,4.27,0.05,4.31,4.2c0.03,3.2,0.04,6.39-0.02,9.59
				c-0.04,2.19-0.41,2.55-2.46,2.64c-1.12,0.05-2.24,0.02-3.36,0.02c-6.55,0-13.11,0-19.66,0c-1.12,0-2.24,0.01-3.36,0.05
				c-1.13,0.04-1.83,0.65-1.84,1.77c-0.03,5.43-0.03,10.86,0.01,16.29c0.01,1.12,0.79,1.7,1.88,1.74c1.12,0.05,2.24,0.05,3.36,0.05
				c5.76,0,11.51,0,17.27,0c1.12,0,2.24,0,3.36,0.06c1.06,0.05,1.91,0.53,1.91,1.69c0.03,4.47,0,8.94-0.05,13.41
				c-0.01,0.72-0.55,1.15-1.24,1.21c-1.11,0.09-2.23,0.13-3.35,0.14c-6.08,0.01-12.15,0-18.23,0.01c-1.12,0-2.24,0.02-3.35,0.09
				c-0.9,0.06-1.48,0.59-1.54,1.5c-0.08,1.27-0.1,2.55-0.1,3.83c-0.01,8.95,0,17.9-0.01,26.84c0,1.27-0.05,2.55-0.15,3.82
				c-0.05,0.72-0.58,1.08-1.26,1.22c-0.16,0.03-0.31,0.08-0.47,0.08c-4.8,0.01-9.59,0.02-14.39,0c-1.1,0-1.81-0.56-1.85-1.73
				c-0.04-1.28-0.05-2.56-0.05-3.83C1316.86,1187.54,1316.86,1174.28,1316.86,1161.02z"/>
		</g>
		<g>
			<path class="st0" d="M1391.76,1161.32c0-13.26,0-26.52,0-39.79c0-1.28,0.03-2.55,0.11-3.83c0.06-0.91,0.66-1.43,1.54-1.5
				c0.95-0.08,1.91-0.09,2.87-0.09c13.27-0.01,26.54,0,39.81,0c0.8,0,1.6-0.01,2.4,0.04c1.54,0.1,2.14,0.56,2.16,1.95
				c0.05,4.15,0.06,8.31,0,12.46c-0.02,1.43-0.58,1.95-2.12,1.96c-5.75,0.05-11.51,0.04-17.27,0.05c-3.04,0.01-6.08-0.02-9.11,0.05
				c-1.58,0.04-2.13,0.51-2.14,1.95c-0.05,5.27-0.05,10.54-0.01,15.82c0.01,1.43,0.62,2.01,2.08,2.04
				c3.36,0.07,6.71,0.05,10.07,0.06c4.48,0.01,8.95-0.02,13.43,0.05c1.78,0.03,2.24,0.52,2.27,2.35c0.06,3.83,0.07,7.67,0.02,11.5
				c-0.03,2.17-0.39,2.55-2.5,2.57c-4.8,0.06-9.59,0.02-14.39,0.03c-3.04,0.01-6.07,0.01-9.11,0.05c-1.1,0.01-1.83,0.54-1.87,1.72
				c-0.05,1.28-0.06,2.56-0.06,3.83c0,8.79,0,17.58-0.01,26.36c0,1.28-0.02,2.56-0.09,3.83c-0.05,0.9-0.6,1.53-1.5,1.54
				c-4.95,0.05-9.91,0.05-14.86,0.03c-1.17-0.01-1.66-0.8-1.69-1.89c-0.03-1.28-0.04-2.56-0.04-3.83
				C1391.76,1187.53,1391.76,1174.42,1391.76,1161.32z"/>
		</g>
		<g>
			<path class="st0" d="M808.78,1169.66c0-10.54,0-21.09,0-31.63c0-1.28-0.01-2.56-0.1-3.83c-0.06-0.9-0.63-1.48-1.52-1.54
				c-1.27-0.09-2.55-0.08-3.83-0.09c-4.64-0.01-9.27,0.02-13.9-0.03c-2.11-0.03-2.52-0.43-2.54-2.54
				c-0.05-3.99-0.01-7.99,0.02-11.98c0.01-1.11,0.62-1.79,1.75-1.85c1.12-0.06,2.24-0.06,3.35-0.06c17.1,0,34.2,0,51.31,0
				c1.12,0,2.24,0.01,3.35,0.09c0.88,0.07,1.54,0.58,1.55,1.5c0.03,4.47,0.05,8.94-0.03,13.4c-0.02,1.22-1.08,1.43-2.09,1.44
				c-3.84,0.02-7.67,0.03-11.51,0.03c-1.76,0-3.52-0.04-5.27,0.03c-2.22,0.08-2.71,0.6-2.83,2.93c-0.07,1.27-0.03,2.56-0.03,3.83
				c0,20.45,0,40.89,0,61.34c0,6.17,0.42,5.7-5.68,5.71c-3.36,0.01-6.71-0.01-10.07-0.04c-1.11-0.01-1.81-0.58-1.86-1.73
				c-0.06-1.28-0.06-2.55-0.06-3.83C808.78,1190.42,808.78,1180.04,808.78,1169.66z"/>
		</g>
		<g>
			<path class="st0" d="M711.88,1127.86c-9.22-9.12-20.16-13.83-33.58-13.7c-2.75,0.23-5.92,0.07-9.11,0.76
				c-10.35,2.23-19.11,7.16-26.19,14.98c-10.83,11.98-14.62,25.92-11.24,41.72c2.19,10.23,7.69,18.52,15.57,25.25
				c10.38,8.87,22.58,12.75,36.04,11.21c16.27-1.86,28.8-10.17,36.95-24.43c6.49-11.36,7.72-23.55,3.9-36.1
				C721.89,1139.92,717.58,1133.5,711.88,1127.86z M684.69,1190.7c-2.2,0.54-4.44,0.41-6.67,0.5c-12.35,0.56-25.63-9.5-28.48-23.82
				c-1.46-7.34-0.61-14.4,3.13-20.8c4.88-8.36,11.83-13.91,21.91-15.25c17.1-2.27,30.44,10.64,32.86,24.02
				C710.25,1170.81,700.97,1186.7,684.69,1190.7z"/>
		</g>
		<g>
			<path class="st0" d="M1288.28,1148.32c-3.6-12.99-12.02-22.43-23.68-28.86c-10.05-5.54-20.89-6.42-32.09-4.33
				c-21.55,4.03-38.89,25.5-37.71,46.31c-0.43,7.98,1.75,15.88,6.05,23.23c3.1,5.31,7.17,9.74,12.06,13.49
				c12.81,9.81,27,12.53,42.5,8.33c8.87-2.4,16.33-7.22,22.43-14.08C1289.21,1179.59,1292.85,1164.81,1288.28,1148.32z
				 M1264.05,1181.61c-5.88,6.3-13.25,9.86-22.13,9.58c-13.19,0.73-28.67-11.64-28.92-28.56c-0.1-6.43,1.05-12.41,4.6-17.76
				c4.87-7.36,11.36-12.32,20.46-13.48c8.71-1.11,16.48,0.89,23.15,6.56c7.08,6.03,10.51,13.82,10.62,23.14
				C1271.9,1168.98,1269.33,1175.95,1264.05,1181.61z"/>
		</g>
		<g>
			<path class="st0" d="M608.33,1183.96c-6.58-17.66-13.13-35.32-19.7-52.98c-1.39-3.74-2.91-7.44-4.27-11.19
				c-1.48-4.07-1.54-3.67-5.54-3.68c-4.32-0.02-8.64,0-12.96,0c-0.8,0-1.6,0.03-2.4,0.02c-1.27-0.02-2.12,0.52-2.54,1.75
				c-0.31,0.91-0.66,1.8-1,2.69c-2.29,6.14-4.56,12.27-6.86,18.41c-8.05,21.54-16.11,43.08-24.14,64.62c-0.3,0.81-1.1,1.66-0.02,2.8
				c5.25,0,10.67,0,16.1,0c1.28,0,2.1-0.62,2.51-1.8c1.01-2.86,1.99-5.73,3-8.59c1.07-3.01,2.14-6.02,3.24-9.02
				c0.35-0.96,1.03-1.6,2.13-1.63c0.8-0.02,1.6-0.05,2.4-0.05c9.28,0,18.56,0,27.83,0c0.8,0,1.6,0.03,2.4,0.04
				c1.09,0.03,1.79,0.63,2.16,1.59c0.46,1.19,0.83,2.42,1.26,3.62c1.56,4.36,3.1,8.73,4.69,13.08c0.98,2.68,1.02,2.74,3.73,2.77
				c4.32,0.05,8.64,0.03,12.96,0.01c0.93,0,1.91,0.21,2.78-0.41c0.22-1.33-0.39-2.47-0.84-3.65
				C612.95,1196.22,610.62,1190.1,608.33,1183.96z M582.88,1168.47c-0.61,0.17-1.24,0.31-1.87,0.31c-5.92,0.02-11.84,0.01-17.76,0
				c-0.47,0-0.98-0.02-1.42-0.18c-0.6-0.23-1.13-0.62-0.93-1.42c0.12-0.46,0.25-0.93,0.41-1.38c2.92-8.28,5.82-16.58,8.81-24.84
				c0.52-1.43,0.81-3.06,2.16-4.11c1.15,1.07,1.48,2.53,1.95,3.85c3.03,8.42,6,16.85,8.98,25.29c0.16,0.45,0.3,0.92,0.36,1.39
				C583.63,1167.88,583.39,1168.33,582.88,1168.47z"/>
		</g>
		<g>
			<path class="st0" d="M1029.33,1200.89c-7.82-20.92-15.65-41.84-23.48-62.75c-2.35-6.28-4.83-12.5-7.01-18.84
				c-0.89-2.6-2.31-3.36-4.93-3.25c-4.63,0.2-9.28,0.24-13.9-0.01c-2.93-0.16-4.49,0.94-5.2,3.63c-0.08,0.31-0.26,0.58-0.37,0.88
				c-5.19,13.9-10.37,27.8-15.56,41.7c-4.69,12.55-9.4,25.1-14.06,37.66c-0.71,1.92-1.68,3.79-1.81,6.5c5.12,0,9.91,0.01,14.69,0
				c3.48-0.01,3.66,0.39,5-3.68c0.25-0.76,0.54-1.5,0.81-2.25c1.61-4.51,3.24-9.01,4.83-13.52c0.36-1.02,0.98-1.6,2.08-1.63
				c0.48-0.01,0.96-0.02,1.44-0.02c9.91,0,19.82,0,29.73,0c0.48,0,0.96,0.04,1.44,0.03c1.11-0.01,1.79,0.57,2.16,1.55
				c0.89,2.39,1.79,4.78,2.65,7.18c1.24,3.45,2.47,6.91,3.65,10.39c0.4,1.17,0.99,1.95,2.34,1.95c5.11-0.02,10.23,0,15.34-0.05
				c1.26-0.01,1.77-0.71,1.43-1.84C1030.22,1203.29,1029.78,1202.09,1029.33,1200.89z M996.35,1168.73
				c-3.34,0.06-6.69,0.02-10.03,0.02c0,0.01,0,0.03,0,0.04c-2.87,0-5.73,0.03-8.6-0.01c-2.3-0.04-2.59-0.42-1.91-2.48
				c0.94-2.87,1.94-5.72,2.95-8.57c2.25-6.29,4.52-12.56,6.79-18.84c0.11-0.3,0.14-0.65,0.31-0.9c0.25-0.38,0.54-0.84,0.93-0.99
				c0.54-0.21,0.73,0.35,0.91,0.76c0.2,0.43,0.41,0.86,0.57,1.31c3.15,8.83,6.3,17.67,9.44,26.5c0.11,0.3,0.2,0.6,0.27,0.91
				C998.31,1167.82,997.74,1168.7,996.35,1168.73z"/>
		</g>
	</g>
	<g>
		<g>
			<path class="st1" d="M992.11,191.66c-33.61,2.2-63.26,11.58-90.56,28.7c-44.79,28.11-76.19,74.09-85.85,125.68
				c-2.3,12.41-3.14,21.66-3.14,35c0,16.94,1.51,29.49,5.49,45.55c7.01,28.44,20.32,54.34,39.64,77.27
				c4.67,5.54,16.16,16.96,21.77,21.7c30.31,25.49,64.88,40.12,104.79,44.29c7.79,0.8,27.95,0.8,35.73,0
				c46.12-4.81,86.73-24.41,118.42-57.13c47.22-48.84,64.7-118.7,45.96-184.01c-16.08-56.18-58.17-102.51-112.69-124
				c-16.65-6.57-33.19-10.55-51.69-12.42C1015.02,191.79,996.57,191.39,992.11,191.66z M1019.64,220.99
				c19.05,2.35,35.6,7.23,51.88,15.2c15.93,7.81,29.28,17.39,42.06,30.21c6.31,6.28,10.5,11.08,15.28,17.52
				c20.24,27.3,30.96,59.88,30.96,94.12c0,53.31-26.69,102.57-71.53,131.98c-22,14.46-46.8,22.92-73.82,25.23
				c-5.19,0.44-19.53,0.44-24.71,0c-33.61-2.87-63.36-15.08-89.45-36.75c-4.54-3.77-15.02-14.28-18.92-18.99
				c-20.42-24.66-32.14-51.85-36.04-83.78c-1.01-7.91-1.08-26.86-0.17-34.47c1.83-15.4,5.01-28.32,10.14-41.29
				c21.09-53.41,69.79-91.32,126.59-98.63c7.62-0.97,10.75-1.1,22.03-1C1011.78,220.4,1016.46,220.59,1019.64,220.99z"/>
		</g>
		<g>
			<path class="st1" d="M976.34,287.55c-2.63,1.21-4.87,5.62-5.84,11.38c-0.67,4.03-0.56,16.15,0.2,20.19
				c2.29,12.58,6.35,20.46,13.27,26.06c10.14,8.14,13.73,12.39,16.18,19.07l0.89,2.51l0.93-2.56c1.09-3.01,2.11-4.85,4.34-7.85
				c1.8-2.44,7.78-8.4,11.81-11.79c5.31-4.4,8.94-9.68,10.81-15.68c1-3.22,2.3-11.01,2.78-16.36c0.87-10.1-1.64-21.72-5.3-24.49
				c-0.98-0.77-1.58-0.93-2.95-0.93c-2.27,0.04-4,1.06-7.03,4.24c-3.98,4.1-7.45,9.05-12.44,17.62c-1.53,2.67-2.9,4.98-3.06,5.14
				c-0.16,0.13-0.6-0.33-0.96-1.06c-1.28-2.47-9.99-15.73-12.56-19.09c-2.93-3.82-4.68-5.48-6.65-6.39
				C979.05,286.78,978.12,286.78,976.34,287.55z"/>
		</g>
		<g>
			<path class="st1" d="M909.3,323.3c-1.18,0.46-2.03,1.86-3.42,5.44c-5.83,15.09-9.21,34.61-8.61,49.46
				c1.03,24.11,9.02,46.63,22.5,63.59c12.94,16.26,34.47,29.4,55.96,34.2c9.05,2,12.13,2.31,23.7,2.31
				c11.82,0,14.48-0.24,24.72-2.31c12.64-2.57,24.55-7.17,34.19-13.17c11.12-6.92,22.16-18.06,29.2-29.38
				c8.43-13.58,13.82-28.74,16.09-45.06c0.8-5.87,0.8-21.42,0-27.49c-1.06-7.99-3-16.83-5.24-24.07c-1.63-5.31-3.69-10.95-4.4-11.95
				c-0.87-1.2-2.26-1.91-3.91-1.91c-1.89,0-17.85,3.2-19.04,3.83c-1.35,0.71-2.35,2.34-2.35,3.88c0,0.67,0.57,2.77,1.28,4.68
				c3.89,10.55,5.5,18.88,5.5,29c0,18.24-6.01,33.85-17.45,45.4c-10.02,10.05-22.37,16.32-39.21,19.85c-2.37,0.5-5.18,1.3-6.19,1.77
				c-2.52,1.21-4.7,3.48-6.31,6.68c-1.43,2.83-4.01,10.21-4.74,13.52c-0.22,1.06-0.56,1.86-0.72,1.79c-0.2-0.07-1.28-2.9-2.41-6.26
				c-2.61-7.78-3.74-10.15-6.09-12.66c-2.5-2.69-5.3-4.04-10.81-5.16c-7.41-1.48-16.38-4.68-22.66-8.08
				c-17.22-9.28-27.59-23.42-31.5-42.9c-1.64-8.11-1.84-15.68-0.67-24.45c0.83-6.05,2.24-11.29,5.44-19.94
				c0.84-2.3,0.87-3.6,0.17-5.14c-0.94-1.93-2.14-2.36-11.15-4.17C912.89,322.99,910.66,322.73,909.3,323.3z"/>
		</g>
		<g>
			<path class="st1" d="M1050.83,339.95c-4.15,1.07-8.45,4.74-26.79,22.9c-15.33,15.11-18.2,19.13-21.6,29.93
				c-0.68,2.18-1.38,4.01-1.51,4.11c-0.16,0.1-0.77-1.32-1.33-3.2c-2.21-7.08-5.14-12.65-9.72-18.32
				c-4.92-6.15-29.23-29.47-33.94-32.64c-3.61-2.41-4.87-2.88-7.41-2.67c-2.32,0.17-3.96,1.24-5.1,3.37
				c-0.66,1.26-0.72,1.83-0.71,6.24c0,4.77,0.04,4.93,1.55,10.01c4.72,15.92,11.67,27.27,22.01,35.89
				c5.19,4.34,10.23,7.33,17.78,10.57c5.53,2.38,7.5,3.61,10.12,6.38c2.35,2.57,4.03,5.64,5.43,10.25c0.95,3.21,1.1,3.44,1.51,2.85
				c0.29-0.38,0.82-1.72,1.18-3.01c1.97-6.87,4.9-11.01,9.81-13.89c0.95-0.52,3.11-1.54,4.85-2.2c15.41-6,26.93-16.56,34.61-31.63
				c5.08-10.02,7.4-18.67,7.43-27.48c0-3.47-1.08-5.74-3.32-6.9C1054.54,339.92,1052.08,339.62,1050.83,339.95z"/>
		</g>
		<g>
			<path class="st1" d="M400.07,397.01c-0.27,2.27,0.33,14.87,0.94,20.27c3.73,32.3,17.31,61.91,40.21,87.74
				c4.45,4.98,14.36,14.65,19.04,18.56c4.66,3.88,9.5,7.54,13.51,10.23c1.67,1.06,49.78,26.28,106.95,56.02l103.9,54.04
				l-0.11,149.35l-0.14,149.36l8.85,5.95c4.88,3.28,35.58,23.96,68.26,45.96l59.41,40.01l0.27-2.39c0.16-1.34,0.2-12.09,0.12-23.93
				c-0.2-23.83-0.23-24.47-2.43-31.02c-0.63-1.9-2.14-5.36-3.33-7.67c-4.24-8.27-3.74-7.71-36.61-40.42l-30.04-29.9l0.21-15.83
				c0.13-8.71,0.25-73.45,0.25-143.84c0.07-142.66,0.27-130.34-2.2-137.72c-2.6-7.84-6.24-13.61-12.48-19.83
				c-2.51-2.51-5.34-4.94-7.04-6.08c-2.34-1.53-172.62-95.41-327.12-180.36C400.34,395.46,400.17,396.12,400.07,397.01z"/>
		</g>
		<g>
			<path class="st1" d="M1538.15,429.53c-33.95,18.7-107.18,59.01-162.72,89.59c-55.55,30.57-101.61,56.04-102.48,56.6
				c-2.63,1.77-6.86,5.47-9.16,8.01c-6.52,7.18-10.65,15.49-12.39,24.77c-0.73,3.9-0.69-14.7-0.5,164.17l0.1,126.78l-30.22,30.27
				c-28.56,28.6-30.34,30.43-32.6,33.9c-3.94,6.01-6.31,11.22-7.86,17.15c-0.71,2.68-0.91,4.51-1.18,10.88
				c-0.37,7.95-0.3,42.36,0.07,42.73c0.16,0.1,23.68-15.63,52.41-34.98c28.69-19.33,59.41-40,68.21-45.93l16.02-10.74l-0.11-149.43
				l-0.08-149.43l104.04-54.07c79.82-41.48,104.95-54.66,107.88-56.71c16.47-11.18,33.16-28.01,45.03-45.35
				c17.89-26.14,27.91-57.65,27.37-86.35l-0.09-5.87L1538.15,429.53z"/>
		</g>
		<g>
			<path class="st1" d="M1002.51,589.97c-6.57,0.14-12.08,0.38-12.25,0.55c-0.23,0.27-54.09,150.96-139.8,391.27
				c-10.32,28.9-18.66,52.64-18.56,52.72c0.36,0.37,27.93,0.74,41.39,0.58c15.28-0.2,15.91-0.27,20.72-2.57
				c5.14-2.44,9.91-7.92,12.98-14.91c0.77-1.78,5.27-14.6,9.97-28.44c4.69-13.86,11.63-34.21,15.37-45.23
				c3.73-11.02,20.76-61.15,37.82-111.37c17.02-50.24,31.07-91.25,31.18-91.12c0.09,0.14,4.65,13.08,10.14,28.77
				c47.02,135.22,69.15,199.29,78,225.81c5.25,15.78,7.17,20.45,10.41,25.32c4.43,6.64,9.33,10.58,15.89,12.79l2.83,0.93l25.66-0.07
				c14.12-0.07,25.74-0.17,25.81-0.23c0.07-0.07-5.07-15.12-11.42-33.45c-6.37-18.35-14.41-41.61-17.91-51.7
				c-5.91-17.13-123.6-356.5-124.44-358.91c-0.3-0.79-0.6-1.06-1.08-0.99C1014.79,589.74,1009.1,589.87,1002.51,589.97z"/>
		</g>
		<g>
			<path class="st1" d="M485.14,592.05c-0.79,2.5-1.62,15.32-1.37,20.96c1.35,28.33,12.02,53.4,33.41,78.44
				c6.72,7.84,18.13,18.62,26.85,25.39c7.66,5.94,10.57,7.62,59.75,34.65l49.22,27.04l0.11-7.58c0.16-13.42-0.54-87.92-0.83-88.21
				c-0.18-0.17-36.73-20.13-81.21-44.4c-44.53-24.23-82.04-44.65-83.38-45.38C485.95,591.97,485.24,591.71,485.14,592.05z"/>
		</g>
		<g>
			<path class="st1" d="M1431.17,637.37l-83.28,45.37l-0.21,7.11c-0.27,10.1-0.72,88.72-0.49,88.72c0.64,0,98.76-54.24,101.5-56.12
				c8.51-5.83,16.38-12.52,25.35-21.49c9.43-9.38,15.74-17.03,21.94-26.53c12.89-19.7,19.5-39.45,20.47-61.24
				c0.3-6.84-0.8-21.2-1.61-21.2C1514.62,591.97,1476.97,612.41,1431.17,637.37z"/>
		</g>
		<g>
			<path class="st1" d="M543.25,765.43c-0.1,0.17-0.43,2.51-0.77,5.27c-0.76,6.19-0.85,21.09-0.19,26.7
				c2.67,22.27,10.77,41.96,25.17,60.98c16.12,21.36,40.38,41.26,68.85,56.45c5.68,3,16.68,8.24,17.39,8.24
				c0.07,0,0.13-21.66,0.13-48.16v-48.16l-55.03-30.77c-30.28-16.92-55.11-30.77-55.21-30.77
				C543.48,765.21,543.32,765.3,543.25,765.43z"/>
		</g>
		<g>
			<path class="st1" d="M1401.4,796.04l-54.99,30.74l-0.02,48.13c0,27.13,0.14,48.16,0.29,48.16c0.55,0,7.26-3.1,13.05-6.01
				c17.9-9.05,35.55-20.96,49.56-33.37c4.59-4.08,13.59-13.15,17.23-17.36c1.49-1.73,4.48-5.55,6.66-8.45
				c16.76-22.35,25.35-46.99,25.35-72.84c0-8-1.18-19.93-1.95-19.81C1456.46,765.27,1431.63,779.12,1401.4,796.04z"/>
		</g>
		<g>
			<path class="st1" d="M968.94,930.82c-0.17,0.42-3.17,7.97-6.72,16.79c-3.54,8.8-6.5,16.22-6.6,16.48
				c-0.13,0.37,7.11,0.4,44.58,0.33c24.6-0.06,44.83-0.24,44.97-0.37c0.14-0.13-2.68-7.81-6.21-17.09l-6.49-16.89h-31.62h-31.62
				L968.94,930.82z"/>
		</g>
	</g>
</g>
</svg>
